<?xml version="1.0" standalone="no"?>
<!DOCTYPE svg PUBLIC "-//W3C//DTD SVG 20010904//EN"
 "http://www.w3.org/TR/2001/REC-SVG-20010904/DTD/svg10.dtd">
<svg version="1.0" xmlns="http://www.w3.org/2000/svg"
 width="955.000000pt" height="779.000000pt" viewBox="0 0 955.000000 779.000000"
 preserveAspectRatio="xMidYMid meet">
<metadata>
Created by potrace 1.15, written by Peter Selinger 2001-2017
</metadata>
<g transform="translate(0.000000,779.000000) scale(0.100000,-0.100000)"
fill="#000000" stroke="none">
<path d="M3714 7496 l-34 -34 0 -281 0 -281 29 -32 29 -33 316 -3 316 -3 0
-70 c0 -68 0 -69 -22 -58 -23 12 -23 16 6 -53 l16 -38 -207 0 -208 0 -132
-333 c-73 -182 -135 -340 -139 -349 -6 -17 15 -18 340 -18 l346 0 0 -185 c0
-102 -4 -185 -8 -185 -4 0 -13 5 -20 12 -17 17 -15 7 8 -46 l19 -46 -207 0
-207 0 -132 -333 c-73 -182 -135 -340 -139 -349 -6 -17 15 -18 340 -18 l346 0
0 -70 c0 -68 -1 -70 -20 -60 -11 6 -20 8 -20 5 0 -3 9 -23 20 -45 11 -22 20
-42 20 -45 0 -3 -119 -5 -264 -5 l-264 0 -140 -350 -140 -350 344 0 344 0 0
-185 c0 -183 0 -186 -20 -175 -25 14 -25 12 5 -42 l25 -45 -436 -233 -436
-233 -45 22 c-49 24 -63 27 -45 9 21 -21 13 -28 -28 -28 l-40 0 0 115 0 115
-755 0 -755 0 0 -1210 0 -1210 920 0 920 0 0 -175 0 -175 700 0 700 0 0 350 0
350 -345 0 c-190 0 -345 2 -345 5 0 3 9 23 20 45 25 49 25 53 0 40 -20 -11
-21 -9 -18 117 l3 128 330 2 c182 1 336 2 343 3 9 0 12 77 12 350 l0 350 -345
0 c-190 0 -345 3 -345 8 0 4 9 21 20 37 25 38 25 48 1 40 -26 -8 -33 29 -29
154 l3 93 429 229 430 229 219 0 c195 0 218 -2 207 -15 -7 -9 -10 -18 -7 -21
5 -6 87 33 87 41 0 5 -75 45 -84 45 -2 0 -2 -9 1 -20 5 -20 0 -20 -207 -20
l-212 0 -429 228 c-270 143 -428 233 -429 242 0 8 9 30 20 48 25 41 25 45 0
32 -20 -11 -20 -8 -20 175 l0 185 204 0 204 0 140 350 140 350 -289 0 -289 0
16 38 c29 69 29 65 6 53 -22 -11 -22 -10 -22 58 l0 71 207 2 207 3 138 345
c76 189 138 346 138 347 0 2 -155 3 -345 3 -190 0 -345 2 -345 5 0 3 9 23 20
45 23 44 26 60 8 42 -7 -7 -16 -12 -20 -12 -4 0 -8 83 -8 185 l0 185 207 2
207 3 138 345 c76 190 138 346 138 347 0 2 -155 3 -345 3 l-345 0 16 38 c29
69 29 65 6 53 -22 -11 -22 -10 -22 58 l0 70 316 3 316 3 29 33 29 32 0 281 0
281 -34 34 -34 34 -627 0 -627 0 -34 -34z m1291 12 c52 -23 55 -44 55 -334 l0
-266 -34 -34 -34 -34 -617 0 -617 0 -34 34 -34 34 0 269 c1 286 3 303 51 329
33 18 1224 20 1264 2z m45 -915 c0 -5 -60 -157 -132 -340 l-133 -333 -547 0
-546 0 136 340 136 340 543 0 c299 0 543 -3 543 -7z m0 -1150 c0 -5 -60 -157
-132 -340 l-133 -333 -547 0 -546 0 136 340 136 340 543 0 c299 0 543 -3 543
-7z m-110 -916 c0 -1 -60 -153 -134 -337 l-134 -335 -547 -3 c-437 -2 -546 0
-542 10 3 7 60 150 127 318 67 168 126 315 131 328 l9 22 545 0 c300 0 545 -1
545 -3z m-251 -1376 c232 -124 420 -225 418 -226 -19 -16 -837 -445 -847 -445
-7 0 -201 100 -431 223 -379 202 -416 223 -396 234 180 99 824 441 829 440 3
-1 196 -103 427 -226z m-1469 -116 l0 -115 45 0 c46 0 54 -7 33 -28 -18 -18
-2 -15 43 9 22 11 46 19 53 17 7 -2 203 -104 434 -228 l422 -225 0 -112 c0
-61 3 -119 7 -128 5 -14 2 -16 -15 -10 -25 7 -27 0 -7 -35 29 -52 39 -50 -330
-50 l-345 0 0 -350 0 -350 58 0 c31 0 188 -1 347 -3 l290 -2 2 -127 c2 -116
-4 -147 -22 -118 -3 6 -11 10 -16 10 -5 0 0 -18 11 -40 11 -21 20 -44 20 -50
0 -7 -113 -10 -345 -10 l-345 0 0 -170 0 -170 -915 0 -915 0 0 1200 0 1200
745 0 745 0 0 -115z m1720 -1255 l0 -340 -680 0 -680 0 0 340 0 340 680 0 680
0 0 -340z m0 -1040 l0 -340 -680 0 -680 0 0 340 0 340 680 0 680 0 0 -340z"/>
<path d="M5776 2935 c-76 -191 -136 -348 -134 -351 8 -8 1101 -5 1108 3 4 5
36 81 71 170 l64 163 374 0 c333 0 372 -2 361 -15 -21 -25 -4 -28 39 -5 l41
20 0 -120 c0 -133 12 -178 53 -205 22 -14 87 -16 591 -15 616 0 598 -2 624 56
8 17 12 111 12 290 0 221 -3 270 -16 295 -30 59 -31 59 -626 59 -584 0 -572 1
-612 -53 -18 -25 -21 -45 -24 -163 l-4 -134 -38 20 c-48 25 -49 25 -43 0 5
-20 0 -20 -361 -20 l-366 0 19 48 c10 26 33 83 51 127 18 44 41 101 51 128
l19 47 -558 0 -558 0 -138 -345z m1234 330 c0 -10 -262 -660 -269 -668 -4 -4
-251 -6 -548 -5 l-541 3 135 338 135 337 544 0 c299 0 544 -2 544 -5z m1931
-33 l30 -33 -3 -281 -3 -280 -28 -24 -28 -24 -568 0 -568 0 -27 26 -26 27 0
281 c0 311 1 317 63 335 19 6 260 9 580 8 l549 -2 29 -33z"/>
</g>
</svg>
