<?xml version="1.0" standalone="no"?>
<!DOCTYPE svg PUBLIC "-//W3C//DTD SVG 20010904//EN"
 "http://www.w3.org/TR/2001/REC-SVG-20010904/DTD/svg10.dtd">
<svg version="1.0" xmlns="http://www.w3.org/2000/svg"
 width="955.000000pt" height="779.000000pt" viewBox="0 0 955.000000 779.000000"
 preserveAspectRatio="xMidYMid meet">

<g transform="translate(0.000000,779.000000) scale(0.100000,-0.100000)"
fill="#000000" stroke="none">
<path d="M3711 7499 l-31 -31 0 -285 0 -285 34 -34 34 -34 311 0 311 0 -1 -66
c-2 -64 -2 -65 -26 -59 l-24 6 21 -40 c11 -22 20 -45 20 -51 0 -6 -69 -10
-203 -10 l-203 0 -137 -343 c-75 -188 -137 -345 -137 -350 0 -4 155 -7 345 -7
l345 0 0 -185 c0 -181 -1 -185 -19 -175 -31 16 -33 12 -11 -30 11 -21 20 -44
20 -50 0 -6 -69 -10 -203 -10 l-203 0 -137 -343 c-75 -188 -137 -345 -137
-350 0 -4 155 -7 345 -7 l345 0 0 -66 c0 -66 0 -66 -25 -60 l-26 7 21 -40 c11
-22 20 -45 20 -50 0 -7 -92 -12 -262 -13 l-262 -3 -138 -345 c-76 -189 -138
-346 -138 -347 0 -2 155 -3 345 -3 l345 0 0 -181 c0 -176 -1 -180 -20 -174
-25 8 -25 4 1 -47 11 -22 17 -44 12 -48 -4 -5 -198 -110 -431 -234 l-423 -226
-50 25 c-51 27 -56 26 -39 -6 10 -17 7 -19 -30 -19 l-40 0 0 115 0 115 -755 0
-755 0 0 -1210 0 -1210 920 0 920 0 0 -175 0 -175 700 0 700 0 0 350 0 350
-345 0 c-190 0 -345 2 -345 5 0 3 9 23 20 45 11 22 20 42 20 45 0 3 -9 1 -20
-5 -20 -10 -20 -8 -20 115 l0 125 345 0 345 0 0 355 0 355 -345 0 -345 0 20
40 c25 48 25 53 1 45 -25 -8 -31 17 -31 141 l0 101 434 231 435 232 211 0
c207 0 211 0 205 -20 -8 -25 -1 -25 55 4 l44 24 -52 26 c-61 31 -66 32 -52 7
5 -11 10 -22 10 -26 0 -3 -98 -5 -217 -3 l-218 3 -415 224 c-228 122 -419 226
-423 231 -5 4 1 26 12 48 26 51 26 55 1 47 -19 -6 -20 -2 -20 174 l0 181 206
2 206 3 138 345 138 345 -284 3 c-185 1 -284 6 -284 13 0 5 9 28 20 50 l21 40
-26 -7 c-25 -6 -25 -6 -25 60 l0 66 208 0 208 0 137 343 c75 188 137 345 137
350 0 4 -155 7 -345 7 l-345 0 25 50 c27 52 26 57 -6 40 -18 -10 -19 -6 -19
175 l0 185 208 0 208 0 137 343 c75 188 137 345 137 350 0 4 -153 7 -340 7
-229 0 -340 3 -340 10 0 6 9 29 20 51 l21 40 -26 -7 c-25 -6 -25 -6 -25 60 l0
66 311 0 311 0 34 34 34 34 0 285 0 285 -31 31 -31 31 -633 0 -633 0 -31 -31z
m1316 -12 l28 -27 0 -280 0 -280 -28 -27 -27 -28 -625 0 -625 0 -27 28 -28 27
0 279 c0 265 1 280 20 301 11 12 29 26 40 31 11 4 296 7 632 6 l613 -2 27 -28z
m19 -904 c-3 -10 -63 -162 -134 -338 l-128 -320 -542 -3 c-298 -1 -542 0 -542
3 0 6 260 657 267 668 2 4 247 7 544 7 510 0 540 -1 535 -17z m0 -1150 c-4
-10 -37 -94 -74 -187 l-67 -169 -14 36 c-7 21 -18 37 -23 37 -5 0 -4 -9 2 -19
13 -26 13 -67 -2 -94 -10 -20 -10 -21 6 -8 19 16 23 26 -54 -164 l-36 -90
-542 -3 c-298 -1 -542 0 -542 3 0 6 260 657 267 668 2 4 247 7 545 7 510 0
540 -1 534 -17z m-244 -1243 l-136 -340 -543 0 -543 0 19 48 c10 26 72 179
136 340 l117 292 543 0 543 0 -136 -340z m-123 -1036 c223 -119 409 -220 414
-223 7 -7 -814 -451 -833 -451 -16 0 -840 443 -834 449 13 13 820 440 833 441
7 0 196 -97 420 -216z m-1459 -119 l0 -115 45 0 c42 0 45 -2 35 -19 -17 -32
-12 -33 40 -6 l50 26 428 -228 427 -228 5 -125 c3 -69 4 -127 2 -129 -1 -3 -8
1 -14 7 -23 23 -28 12 -12 -25 9 -21 18 -44 21 -50 4 -10 -68 -13 -341 -13
l-346 0 0 -355 0 -355 351 0 352 0 -6 -82 c-4 -46 -7 -100 -7 -121 0 -34 -2
-38 -20 -32 -21 7 -21 6 -5 -32 9 -21 19 -44 22 -51 4 -9 -68 -12 -341 -12
l-346 0 0 -170 0 -170 -915 0 -915 0 0 1200 0 1200 745 0 745 0 0 -115z m1720
-1260 l0 -335 -680 0 -680 0 0 335 0 335 680 0 680 0 0 -335z m0 -1035 l0
-340 -680 0 -680 0 0 340 0 340 680 0 680 0 0 -340z"/>
<path d="M4153 7180 c0 -30 2 -43 4 -27 3 21 10 27 29 27 19 0 24 -5 24 -25 0
-14 5 -25 10 -25 6 0 10 23 10 50 0 28 -4 50 -10 50 -5 0 -10 -9 -10 -20 0
-30 -47 -28 -53 3 -2 12 -4 -3 -4 -33z"/>
<path d="M4255 7201 c-3 -5 4 -7 15 -4 29 8 25 -12 -6 -26 -33 -15 -26 -35 14
-39 29 -3 32 -1 33 25 0 15 3 22 6 16 2 -7 13 -13 24 -13 11 0 19 -7 19 -16 0
-8 5 -12 10 -9 12 7 10 75 -2 75 -4 0 -8 -9 -8 -20 0 -11 -7 -20 -15 -20 -8 0
-15 8 -15 18 0 14 -8 19 -35 20 -19 1 -37 -3 -40 -7z m27 -53 c-6 -6 -15 -8
-19 -4 -4 4 -1 11 7 16 19 12 27 3 12 -12z"/>
<path d="M4394 7199 c-4 -7 0 -9 14 -5 11 4 23 3 26 -3 3 -5 -6 -12 -20 -15
-17 -5 -24 -12 -22 -24 2 -13 15 -18 51 -20 l47 -2 0 35 c0 50 27 48 33 -2 l4
-38 1 43 c2 40 1 42 -28 42 -28 0 -30 -3 -30 -35 0 -19 -4 -35 -10 -35 -5 0
-10 16 -10 35 0 30 -3 35 -24 35 -14 0 -28 -5 -32 -11z m46 -38 c0 -14 -18
-23 -31 -15 -8 4 -7 9 2 15 18 11 29 11 29 0z"/>
<path d="M4550 7191 c-15 -29 4 -63 33 -59 18 2 22 10 22 38 0 28 -4 36 -22
38 -14 2 -26 -4 -33 -17z m45 -21 c0 -27 -22 -39 -31 -16 -8 22 3 49 19 43 6
-2 12 -14 12 -27z"/>
<path d="M4201 6338 c2 -52 2 -52 8 -13 l6 40 23 -37 c13 -21 28 -38 33 -38 5
0 9 23 9 50 0 28 -4 50 -10 50 -5 0 -10 -15 -10 -32 l0 -33 -21 33 c-12 17
-25 32 -30 32 -5 0 -8 -24 -8 -52z"/>
<path d="M4390 6371 c-14 -28 -12 -74 5 -97 13 -17 13 -15 3 17 -8 27 -8 46 0
68 12 35 8 41 -8 12z"/>
<path d="M3960 6361 c0 -18 22 -71 30 -71 12 0 17 10 24 50 l6 35 -14 -30 -14
-30 -11 28 c-10 26 -21 36 -21 18z"/>
<path d="M4035 6360 c-4 -7 2 -9 19 -4 15 3 26 2 26 -4 0 -5 -12 -13 -26 -16
-37 -10 -28 -40 13 -44 31 -3 32 -2 30 35 -2 33 -5 38 -29 41 -14 2 -29 -2
-33 -8z m45 -39 c0 -12 -20 -25 -27 -18 -7 7 6 27 18 27 5 0 9 -4 9 -9z"/>
<path d="M4110 6330 c0 -22 5 -40 10 -40 6 0 10 15 10 34 0 19 6 37 13 39 6 3
2 6 -10 6 -20 1 -23 -4 -23 -39z"/>
<path d="M4421 6352 c-1 -16 6 -26 19 -29 11 -3 20 -12 20 -19 0 -8 5 -14 10
-14 6 0 10 18 10 40 0 22 -4 40 -10 40 -5 0 -10 -9 -10 -20 0 -27 -18 -25 -30
3 l-9 22 0 -23z"/>
<path d="M4490 6329 c0 -28 4 -39 13 -36 6 2 12 9 11 15 -1 7 -2 23 -2 37 -3
42 -22 28 -22 -16z"/>
<path d="M4530 6351 c-13 -25 -13 -41 0 -21 8 12 10 9 10 -12 0 -44 18 -32 18
12 1 43 -11 52 -28 21z"/>
<path d="M4574 6356 c-3 -8 -4 -25 -2 -38 3 -20 9 -23 46 -25 42 -2 42 -1 42
33 0 49 28 46 33 -3 l4 -38 1 43 c2 40 1 42 -28 42 -27 0 -30 -3 -30 -33 0
-27 -4 -33 -24 -35 -17 -1 -27 5 -31 18 -9 27 3 42 27 34 14 -4 18 -2 14 5
-10 16 -46 14 -52 -3z"/>
<path d="M4724 6356 c-12 -31 0 -61 25 -61 31 0 50 28 35 53 -14 22 -52 28
-60 8z m41 -26 c0 -13 -5 -25 -12 -27 -13 -5 -27 32 -18 47 11 18 30 5 30 -20z"/>
<path d="M4308 6353 c12 -2 30 -2 40 0 9 3 -1 5 -23 4 -22 0 -30 -2 -17 -4z"/>
<path d="M4308 6323 c12 -2 30 -2 40 0 9 3 -1 5 -23 4 -22 0 -30 -2 -17 -4z"/>
<path d="M4030 6221 c0 -5 -9 -11 -20 -14 -15 -4 -20 -14 -20 -37 0 -23 5 -33
20 -37 11 -3 20 -12 20 -19 0 -8 5 -14 10 -14 6 0 10 7 10 15 0 8 7 15 15 15
8 0 18 8 23 18 12 22 -3 62 -23 62 -8 0 -15 5 -15 10 0 6 -4 10 -10 10 -5 0
-10 -4 -10 -9z m0 -51 c0 -30 -13 -40 -25 -20 -8 13 4 50 16 50 5 0 9 -13 9
-30z m48 -6 c-5 -28 -28 -29 -28 -1 0 13 3 27 7 30 10 11 25 -9 21 -29z"/>
<path d="M4116 6202 c-3 -6 3 -8 14 -5 29 8 25 -12 -6 -26 -33 -15 -26 -35 15
-39 32 -3 32 -3 29 35 -2 30 -7 39 -25 41 -11 2 -24 -1 -27 -6z m26 -54 c-6
-6 -15 -8 -19 -4 -4 4 -1 11 7 16 19 12 27 3 12 -12z"/>
<path d="M4180 6170 c0 -43 15 -55 22 -17 5 29 -1 57 -13 57 -5 0 -9 -18 -9
-40z"/>
<path d="M4217 6203 c-4 -3 -7 -11 -7 -17 0 -6 5 -5 12 2 23 23 38 13 38 -23
0 -19 4 -35 9 -35 5 0 9 14 9 31 -1 17 5 35 13 40 9 6 1 9 -27 9 -22 0 -44 -3
-47 -7z"/>
<path d="M4312 6198 c-27 -27 -3 -73 35 -66 27 5 25 72 -2 76 -11 1 -26 -3
-33 -10z m43 -28 c0 -27 -22 -39 -31 -16 -8 22 3 49 19 43 6 -2 12 -14 12 -27z"/>
<path d="M4380 6155 c0 -30 5 -55 10 -55 6 0 10 7 10 15 0 8 9 15 20 15 13 0
22 9 26 25 9 38 -2 55 -36 55 -30 0 -30 0 -30 -55z m50 15 c0 -31 -16 -41 -26
-15 -8 19 2 45 16 45 5 0 10 -13 10 -30z"/>
<path d="M4460 6170 c0 -22 4 -40 9 -40 15 0 22 30 11 49 -5 10 -6 21 -3 25 3
3 1 6 -5 6 -7 0 -12 -16 -12 -40z"/>
<path d="M4497 6197 c-7 -18 3 -67 14 -67 5 0 9 18 9 40 0 39 -13 54 -23 27z"/>
<path d="M4546 6202 c-3 -6 3 -8 14 -5 29 8 25 -12 -6 -26 -33 -15 -26 -35 15
-39 32 -3 32 -3 29 35 -2 30 -7 39 -25 41 -11 2 -24 -1 -27 -6z m26 -54 c-6
-6 -15 -8 -19 -4 -4 4 -1 11 7 16 19 12 27 3 12 -12z"/>
<path d="M4618 6170 c-2 -25 0 -39 7 -37 5 2 11 18 13 35 4 43 22 41 22 -3 0
-19 5 -35 10 -35 6 0 10 18 10 40 0 37 -2 40 -29 40 -26 0 -29 -3 -33 -40z"/>
<path d="M4695 6200 c-4 -7 2 -9 19 -4 15 3 26 2 26 -4 0 -5 -12 -13 -26 -16
-36 -9 -28 -40 12 -44 29 -3 30 -1 29 35 0 34 -3 38 -27 41 -14 2 -29 -2 -33
-8z m45 -39 c0 -12 -20 -25 -27 -18 -7 7 6 27 18 27 5 0 9 -4 9 -9z"/>
<path d="M4210 6165 c0 -15 18 -40 24 -34 3 3 -1 14 -9 25 -8 10 -14 15 -15 9z"/>
<path d="M4238 5136 c-22 -16 -23 -27 -4 -20 11 4 16 -4 19 -33 3 -32 4 -30 5
15 1 28 1 52 0 52 -2 0 -11 -7 -20 -14z"/>
<path d="M4342 5125 c-7 -14 -12 -32 -12 -40 0 -21 22 -65 32 -65 5 0 4 9 -2
19 -14 27 -13 84 2 99 7 7 8 12 2 12 -6 0 -16 -11 -22 -25z"/>
<path d="M3874 5114 c3 -9 9 -27 12 -40 9 -34 31 -30 38 9 5 27 11 32 36 34
37 3 40 -12 4 -21 -37 -10 -28 -40 14 -44 33 -3 33 -3 30 35 -3 37 -4 38 -45
39 -37 2 -42 -1 -49 -25 l-7 -26 -10 28 c-6 15 -15 27 -20 27 -5 0 -6 -7 -3
-16z m116 -33 c0 -12 -20 -25 -27 -18 -7 7 6 27 18 27 5 0 9 -4 9 -9z"/>
<path d="M4020 5090 c0 -22 5 -40 10 -40 6 0 10 15 10 34 0 19 6 37 13 39 6 3
2 6 -10 6 -20 1 -23 -4 -23 -39z"/>
<path d="M4113 5090 c0 -25 2 -35 4 -22 2 12 2 32 0 45 -2 12 -4 2 -4 -23z"/>
<path d="M4380 5110 c-8 -14 -8 -26 0 -40 11 -21 44 -27 55 -10 4 6 -4 9 -17
7 -18 -1 -23 3 -23 22 0 32 20 37 42 12 9 -12 25 -21 34 -21 10 0 20 -8 22
-17 3 -10 5 2 4 27 0 25 -2 35 -4 23 -5 -27 -33 -31 -33 -5 0 28 -66 29 -80 2z"/>
<path d="M4521 5117 c-24 -24 -5 -67 30 -67 10 0 21 4 24 10 4 6 -3 9 -16 7
-12 -1 -24 4 -26 11 -3 7 5 12 21 12 16 0 26 6 26 15 0 8 6 15 14 15 10 0 16
-13 19 -37 l4 -38 1 38 c2 40 26 52 35 17 3 -11 12 -20 21 -20 9 0 16 -7 16
-15 0 -8 5 -15 10 -15 6 0 10 18 10 40 0 22 -4 40 -10 40 -5 0 -10 -9 -10 -21
0 -12 -5 -19 -12 -16 -7 2 -12 11 -10 21 2 14 -7 16 -67 15 -38 -1 -74 -6 -80
-12z m44 -7 c3 -5 -3 -10 -14 -10 -12 0 -21 5 -21 10 0 6 6 10 14 10 8 0 18
-4 21 -10z"/>
<path d="M4720 5089 c0 -28 4 -39 13 -36 6 2 12 9 11 15 -1 7 -2 23 -2 37 -3
42 -22 28 -22 -16z"/>
<path d="M4760 5111 c-13 -25 -13 -41 0 -21 8 12 10 9 10 -12 0 -16 4 -28 8
-28 5 0 8 18 8 40 0 44 -9 51 -26 21z"/>
<path d="M4800 5090 c0 -22 5 -40 10 -40 6 0 10 8 10 17 0 15 2 14 14 -3 8
-10 17 -16 20 -13 4 3 -3 17 -14 32 -11 14 -20 30 -20 36 0 6 -4 11 -10 11 -5
0 -10 -18 -10 -40z"/>
<path d="M4830 5113 c0 -10 4 -14 8 -8 4 6 11 13 16 18 5 4 2 7 -7 7 -10 0
-17 -8 -17 -17z"/>
<path d="M4148 5113 c12 -2 30 -2 40 0 9 3 -1 5 -23 4 -22 0 -30 -2 -17 -4z"/>
<path d="M4148 5083 c12 -2 30 -2 40 0 9 3 -1 5 -23 4 -22 0 -30 -2 -17 -4z"/>
<path d="M4448 4306 c-19 -14 -25 -32 -8 -21 6 4 10 -8 10 -29 0 -20 5 -36 10
-36 6 0 10 23 10 50 0 28 -1 50 -2 50 -2 0 -11 -7 -20 -14z"/>
<path d="M4020 4292 c0 -19 22 -72 30 -72 11 0 34 70 26 78 -4 3 -9 -4 -13
-16 -6 -25 -23 -30 -23 -8 0 8 -4 18 -10 21 -5 3 -10 2 -10 -3z"/>
<path d="M4094 4289 c-4 -7 0 -9 14 -5 11 4 23 3 26 -3 3 -5 -6 -12 -20 -15
-17 -5 -24 -12 -22 -24 4 -20 74 -28 94 -11 8 7 14 7 19 -1 13 -21 24 -9 13
15 -8 19 -8 28 2 40 14 17 0 21 -17 4 -8 -8 -13 -8 -17 0 -4 6 -11 11 -17 11
-5 0 -4 -8 2 -19 13 -20 6 -51 -11 -51 -5 0 -10 16 -10 35 0 30 -3 35 -24 35
-14 0 -28 -5 -32 -11z m46 -38 c0 -14 -18 -23 -31 -15 -8 4 -7 9 2 15 18 11
29 11 29 0z"/>
<path d="M4280 4280 c8 -14 8 -26 0 -40 -6 -12 -7 -20 -1 -20 5 0 11 6 14 13
3 9 7 9 20 -2 19 -15 23 -1 5 17 -9 9 -9 15 0 24 18 18 14 32 -5 17 -13 -11
-17 -11 -20 -1 -3 6 -9 12 -14 12 -6 0 -5 -8 1 -20z"/>
<path d="M4358 4283 c12 -2 30 -2 40 0 9 3 -1 5 -23 4 -22 0 -30 -2 -17 -4z"/>
<path d="M4358 4253 c12 -2 30 -2 40 0 9 3 -1 5 -23 4 -22 0 -30 -2 -17 -4z"/>
<path d="M3840 4141 c-14 -28 -12 -74 5 -97 13 -17 13 -15 3 17 -8 27 -8 46 0
68 12 35 8 41 -8 12z"/>
<path d="M4659 4143 c6 -12 11 -34 11 -48 0 -14 -5 -36 -11 -48 -10 -21 -9
-21 10 2 12 13 21 33 21 46 0 13 -9 33 -21 46 -19 23 -20 23 -10 2z"/>
<path d="M3870 4100 c0 -22 5 -40 10 -40 6 0 10 16 10 35 0 50 27 48 33 -2 l4
-38 1 43 c2 40 1 42 -28 42 -28 0 -30 -2 -30 -40z"/>
<path d="M3952 4128 c-15 -15 -15 -41 0 -56 15 -15 45 -16 53 -2 4 6 -3 9 -16
7 -12 -1 -24 4 -26 11 -3 7 5 12 22 12 20 0 26 4 23 18 -4 21 -39 27 -56 10z
m43 -8 c3 -5 -3 -10 -15 -10 -12 0 -18 5 -15 10 3 6 10 10 15 10 5 0 12 -4 15
-10z"/>
<path d="M4020 4085 c0 -30 5 -55 10 -55 6 0 10 7 10 15 0 8 9 15 19 15 10 0
22 8 26 18 6 16 7 16 16 0 10 -19 44 -24 53 -10 3 5 -4 8 -16 8 -12 -1 -23 5
-25 12 -3 7 5 12 22 12 20 0 26 4 23 17 -4 24 -39 29 -54 9 -10 -15 -12 -15
-18 -1 -3 9 -18 15 -36 15 -30 0 -30 0 -30 -55z m50 15 c0 -31 -16 -41 -26
-15 -8 19 2 45 16 45 5 0 10 -13 10 -30z m75 20 c3 -5 -3 -10 -15 -10 -12 0
-18 5 -15 10 3 6 10 10 15 10 5 0 12 -4 15 -10z"/>
<path d="M4181 4098 c1 -35 2 -38 8 -18 l7 25 8 -22 c9 -27 23 -30 29 -5 4 16
5 16 6 0 2 -36 21 -16 21 22 0 47 -24 56 -35 13 l-7 -28 -10 28 c-14 40 -28
33 -27 -15z"/>
<path d="M4274 4126 c-16 -42 21 -85 49 -57 7 7 4 8 -10 5 -13 -4 -22 0 -26
10 -5 12 0 16 23 16 32 0 37 9 18 28 -16 16 -47 15 -54 -2z m46 -6 c0 -5 -9
-10 -21 -10 -11 0 -17 5 -14 10 3 6 13 10 21 10 8 0 14 -4 14 -10z"/>
<path d="M4350 4100 c0 -22 5 -40 10 -40 6 0 10 9 10 20 0 11 5 20 10 20 6 0
10 -9 10 -20 0 -11 5 -20 10 -20 6 0 10 18 10 40 0 22 -4 40 -10 40 -5 0 -10
-7 -10 -15 0 -8 -4 -15 -10 -15 -5 0 -10 7 -10 15 0 8 -4 15 -10 15 -5 0 -10
-18 -10 -40z"/>
<path d="M4420 4100 c0 -22 5 -40 10 -40 6 0 10 9 10 20 0 11 7 20 15 20 8 0
15 -9 15 -21 0 -11 4 -18 9 -15 5 3 9 22 9 41 0 19 -4 35 -9 35 -5 0 -9 -7 -9
-15 0 -8 -7 -15 -15 -15 -8 0 -15 7 -15 15 0 8 -4 15 -10 15 -5 0 -10 -18 -10
-40z"/>
<path d="M4504 4129 c-4 -7 0 -9 14 -5 11 4 23 3 26 -3 3 -5 -6 -12 -20 -15
-17 -5 -24 -12 -22 -24 4 -23 86 -29 94 -7 8 19 24 19 24 0 0 -8 4 -15 9 -15
4 0 8 17 7 38 -1 33 -4 37 -29 40 -25 3 -28 0 -27 -20 3 -36 1 -48 -10 -48 -5
0 -10 16 -10 35 0 30 -3 35 -24 35 -14 0 -28 -5 -32 -11z m116 -14 c0 -8 -7
-15 -15 -15 -8 0 -15 7 -15 15 0 8 7 15 15 15 8 0 15 -7 15 -15z m-70 -24 c0
-14 -18 -23 -31 -15 -8 4 -7 9 2 15 18 11 29 11 29 0z"/>
<path d="M4320 2919 c0 -30 4 -48 10 -44 5 3 8 20 6 38 l-4 32 24 -30 c13 -17
24 -33 24 -37 0 -5 5 -8 10 -8 6 0 9 23 9 53 -2 51 -2 51 -8 12 l-6 -40 -23
38 c-13 20 -28 37 -33 37 -5 0 -9 -23 -9 -51z"/>
<path d="M4130 2910 c0 -22 5 -40 10 -40 6 0 9 18 8 40 -4 52 -18 52 -18 0z"/>
<path d="M4188 2934 c-16 -8 -28 -17 -28 -19 0 -8 62 -37 67 -31 3 3 -10 11
-28 19 l-34 14 28 8 c15 4 27 11 27 16 0 11 1 11 -32 -7z"/>
<path d="M4253 2933 c9 -2 25 -2 35 0 9 3 1 5 -18 5 -19 0 -27 -2 -17 -5z"/>
<path d="M4258 2903 c12 -2 30 -2 40 0 9 3 -1 5 -23 4 -22 0 -30 -2 -17 -4z"/>
<path d="M3737 2353 c-3 -21 -8 -49 -12 -63 -3 -14 -3 -19 1 -12 3 6 21 12 39
12 18 0 36 -6 39 -12 4 -7 4 -2 1 12 -2 14 -5 42 -5 63 0 34 -2 37 -29 37 -25
0 -29 -4 -34 -37z m53 -13 c0 -35 -3 -40 -23 -40 -20 0 -22 4 -19 40 3 31 8
40 23 40 15 0 19 -7 19 -40z"/>
<path d="M3825 2360 c-5 -9 -1 -10 14 -5 12 3 21 2 21 -4 0 -5 -9 -13 -20 -16
-11 -3 -20 -15 -20 -26 0 -15 6 -19 30 -17 29 2 31 5 28 38 -2 27 -8 36 -25
38 -11 2 -24 -2 -28 -8z m35 -45 c0 -8 -7 -15 -15 -15 -26 0 -18 20 13 29 1 1
2 -6 2 -14z"/>
<path d="M4374 1812 c-17 -13 -14 -31 6 -29 10 1 17 4 14 8 -2 4 1 9 8 11 8 3
7 6 -3 10 -9 3 -20 3 -25 0z"/>
<path d="M4112 1780 c10 -16 10 -24 0 -40 -7 -11 -8 -20 -3 -20 6 0 14 7 19
16 8 15 10 15 15 0 4 -9 11 -16 17 -16 6 0 5 7 -2 20 -10 16 -10 24 0 40 13
21 3 27 -15 9 -8 -8 -13 -8 -17 0 -4 6 -11 11 -17 11 -5 0 -4 -9 3 -20z"/>
<path d="M4300 1780 c8 -14 8 -26 0 -40 -6 -12 -7 -20 -1 -20 5 0 11 6 14 13
3 9 7 9 20 -2 19 -15 23 -1 5 17 -9 9 -9 15 0 24 18 18 14 32 -5 17 -13 -11
-17 -11 -20 -1 -3 6 -9 12 -14 12 -6 0 -5 -8 1 -20z"/>
<path d="M4423 1760 c0 -25 2 -35 4 -22 2 12 2 32 0 45 -2 12 -4 2 -4 -23z"/>
<path d="M4228 1783 c12 -2 30 -2 40 0 9 3 -1 5 -23 4 -22 0 -30 -2 -17 -4z"/>
<path d="M4228 1753 c12 -2 30 -2 40 0 9 3 -1 5 -23 4 -22 0 -30 -2 -17 -4z"/>
<path d="M4170 720 c0 -22 5 -40 10 -40 6 0 10 18 10 40 0 22 -4 40 -10 40 -5
0 -10 -18 -10 -40z"/>
<path d="M4231 748 c0 -9 -9 -19 -18 -21 -16 -4 -16 -5 -1 -6 9 0 19 -9 21
-18 4 -16 5 -16 6 -1 0 9 9 19 19 21 15 4 15 5 0 6 -9 0 -19 9 -21 19 -4 15
-5 15 -6 0z"/>
<path d="M4311 748 c0 -9 -9 -19 -18 -21 -16 -4 -16 -5 -1 -6 9 0 19 -9 21
-18 4 -16 5 -16 6 -1 0 9 9 19 19 21 15 4 15 5 0 6 -9 0 -19 9 -21 19 -4 15
-5 15 -6 0z"/>
<path d="M5310 3260 c0 -27 5 -50 10 -50 6 0 10 11 10 25 0 20 5 25 24 25 19
0 26 -6 29 -27 2 -16 4 -3 4 27 0 30 -2 45 -4 33 -6 -31 -53 -33 -53 -3 0 11
-4 20 -10 20 -5 0 -10 -22 -10 -50z"/>
<path d="M5411 3277 c-24 -24 -5 -67 30 -67 10 0 21 4 24 10 4 6 -3 9 -16 7
-12 -1 -24 4 -26 11 -3 7 5 12 21 12 16 0 26 6 26 15 0 8 6 15 14 15 10 0 16
-13 19 -37 l4 -38 1 37 c1 25 7 38 20 41 9 2 -11 5 -45 5 -33 0 -66 -5 -72
-11z m44 -7 c3 -5 -3 -10 -15 -10 -12 0 -18 5 -15 10 3 6 10 10 15 10 5 0 12
-4 15 -10z"/>
<path d="M5901 3253 c-19 -41 -271 -672 -271 -678 0 -3 252 -5 559 -5 l559 0
69 173 69 172 368 3 c364 2 367 2 361 -18 -8 -25 -4 -25 45 0 l40 20 0 -126
c0 -145 12 -183 65 -208 29 -14 102 -16 574 -16 582 0 589 1 625 51 14 20 16
61 16 306 l0 283 -29 32 -29 33 -566 3 c-501 2 -570 1 -597 -13 -47 -25 -59
-67 -59 -205 0 -66 -2 -120 -5 -120 -3 0 -23 9 -45 20 -49 25 -53 25 -40 1 5
-11 10 -22 10 -25 0 -3 -162 -6 -360 -6 -230 0 -360 4 -360 10 0 5 27 78 61
162 34 84 63 159 66 166 4 9 -111 12 -554 12 l-560 0 -12 -27z m1099 0 c0 -5
-59 -155 -131 -335 l-131 -328 -543 0 -543 0 125 313 c69 171 129 322 134 335
l9 22 540 0 c297 0 540 -3 540 -7z m1921 -3 c44 -24 49 -54 49 -318 0 -152 -4
-261 -11 -280 -22 -64 -1 -62 -619 -62 l-562 0 -29 29 -29 29 0 277 0 277 29
29 29 29 562 0 c366 0 568 -4 581 -10z"/>
<path d="M6070 2921 c0 -49 1 -51 29 -51 39 0 51 18 42 60 -6 30 -11 35 -39
38 l-32 3 0 -50z m55 24 c0 -5 -10 -11 -22 -13 -16 -2 -23 2 -23 13 0 11 7 15
23 13 12 -2 22 -7 22 -13z m5 -45 c0 -15 -7 -20 -25 -20 -18 0 -25 5 -25 20 0
15 7 20 25 20 18 0 25 -5 25 -20z"/>
<path d="M6536 2945 c16 -25 16 -27 -6 -50 -15 -16 -18 -25 -10 -25 7 0 19 8
26 18 13 16 15 16 28 0 7 -10 19 -18 26 -18 9 0 5 9 -9 24 -22 23 -22 25 -6
50 10 14 13 26 7 26 -5 0 -13 -7 -16 -16 -6 -16 -8 -16 -24 0 -27 24 -35 19
-16 -9z"/>
<path d="M6160 2909 c0 -38 2 -40 27 -37 35 4 45 37 14 45 -12 3 -21 12 -21
19 0 8 -4 14 -10 14 -5 0 -10 -18 -10 -41z m45 -9 c3 -6 -1 -13 -10 -16 -19
-8 -30 0 -20 15 8 14 22 14 30 1z"/>
<path d="M6233 2910 c0 -25 2 -35 4 -22 2 12 2 32 0 45 -2 12 -4 2 -4 -23z"/>
<path d="M6260 2911 c0 -37 2 -41 25 -41 14 0 28 7 31 15 6 14 8 14 18 -1 7
-9 21 -14 32 -12 14 2 19 12 19 38 0 44 -30 54 -56 19 -16 -22 -17 -22 -16 -4
2 15 -5 21 -25 23 -27 3 -28 1 -28 -37z m40 19 c0 -5 -7 -10 -15 -10 -8 0 -15
5 -15 10 0 6 7 10 15 10 8 0 15 -4 15 -10z m75 -20 c0 -13 -6 -25 -12 -27 -16
-6 -27 21 -19 43 9 23 31 11 31 -16z m-72 -15 c1 -5 -6 -11 -15 -13 -11 -2
-18 3 -18 13 0 17 30 18 33 0z"/>
<path d="M6410 2925 c0 -14 -5 -34 -12 -45 -7 -10 -8 -23 -4 -27 5 -4 11 -2
13 5 6 15 53 16 53 1 0 -5 5 -7 10 -4 6 3 7 18 3 33 -4 15 -6 35 -5 45 0 12
-7 17 -29 17 -24 0 -29 -4 -29 -25z m40 -15 c0 -20 -5 -30 -15 -30 -17 0 -18
4 -9 38 9 32 24 27 24 -8z"/>
<path d="M8173 2920 c-1 -40 1 -47 6 -25 l6 29 22 -29 c12 -17 24 -27 27 -24
4 3 -3 17 -13 31 -20 25 -20 25 0 47 15 16 16 21 5 21 -8 0 -18 -9 -21 -20 -8
-27 -23 -25 -28 3 -2 12 -4 -3 -4 -33z"/>
<path d="M8252 2938 c-27 -27 -3 -73 35 -66 27 5 25 72 -2 76 -11 1 -26 -3
-33 -10z m43 -28 c0 -27 -22 -39 -31 -16 -8 22 3 49 19 43 6 -2 12 -14 12 -27z"/>
<path d="M8320 2910 c0 -22 5 -40 10 -40 6 0 10 9 10 20 0 11 7 20 15 20 8 0
15 -9 15 -20 0 -11 5 -20 11 -20 5 0 8 4 4 9 -3 5 -1 12 4 15 5 3 11 -1 15 -9
6 -16 41 -21 50 -7 3 5 -4 8 -16 8 -12 -1 -23 5 -25 12 -3 7 5 12 22 12 20 0
26 4 23 17 -5 25 -39 29 -55 7 -12 -16 -13 -16 -13 -1 0 9 -4 17 -10 17 -5 0
-10 -7 -10 -15 0 -8 -7 -15 -15 -15 -8 0 -15 7 -15 15 0 8 -4 15 -10 15 -5 0
-10 -18 -10 -40z m125 20 c3 -5 -3 -10 -15 -10 -12 0 -18 5 -15 10 3 6 10 10
15 10 5 0 12 -4 15 -10z"/>
<path d="M8482 2913 c-2 -40 0 -43 23 -43 16 0 25 -6 25 -15 0 -8 5 -15 11
-15 8 0 9 11 5 31 -3 17 -6 42 -6 55 0 13 -4 24 -10 24 -5 0 -10 -16 -10 -35
0 -50 -27 -48 -33 3 l-4 37 -1 -42z"/>
</g>
</svg>
